PathFileType	4	(X/Y/Z)	 s06c0203.trc
DataRate	CameraRate	NumFrames	NumMarkers	Units	OrigDataRate	OrigDataStartFrame	OrigNumFrames
200	200	5	48	mm	200	1	2000
Frame#	Time	racr			lacr			c7			jug			rlel			rdr			llel			ldr			s2			lic			ric			lasi			rasi			rpsi			lpsi			rgt			lgt			rth1			rth2			rth3			rth4			rlfc			rmfc			rsh1			rsh2			rsh3			rsh4			rlmal			rcal			rtoe			rmt5			lth1			lth2			lth4			lth3			llfc			lmfc			llmal			lcal			lmt5			lsh1			lsh2			lsh3			lsh4			ltoe			SBIKE			LBIKE			RBIKE			
		X1	Y1	Z1	X2	Y2	Z2	X3	Y3	Z3	X4	Y4	Z4	X5	Y5	Z5	X6	Y6	Z6	X7	Y7	Z7	X8	Y8	Z8	X9	Y9	Z9	X10	Y10	Z10	X11	Y11	Z11	X12	Y12	Z12	X13	Y13	Z13	X14	Y14	Z14	X15	Y15	Z15	X16	Y16	Z16	X17	Y17	Z17	X18	Y18	Z18	X19	Y19	Z19	X20	Y20	Z20	X21	Y21	Z21	X22	Y22	Z22	X23	Y23	Z23	X24	Y24	Z24	X25	Y25	Z25	X26	Y26	Z26	X27	Y27	Z27	X28	Y28	Z28	X29	Y29	Z29	X30	Y30	Z30	X31	Y31	Z31	X32	Y32	Z32	X33	Y33	Z33	X34	Y34	Z34	X35	Y35	Z35	X36	Y36	Z36	X37	Y37	Z37	X38	Y38	Z38	X39	Y39	Z39	X40	Y40	Z40	X41	Y41	Z41	X42	Y42	Z42	X43	Y43	Z43	X44	Y44	Z44	X45	Y45	Z45	X46	Y46	Z46	X47	Y47	Z47	X48	Y48	Z48	
1	0.0050	427.605658	1348.035770	-46.738180	441.388430	1350.280847	-381.318334	417.249828	1449.237069	-210.033019	446.707575	1293.459945	-207.337300	480.468542	1085.462591	27.388887	682.579250	941.913090	-30.455625	474.150482	1084.166237	-458.271449	673.072856	936.482236	-404.975462	-47.666268	1126.101769	-220.032777	137.958867	1100.533889	-379.852547	108.066403	1102.413516	-44.810620	151.632287	1033.055561	-349.488216	139.467755	1057.603364	-77.239168	-21.140458	1164.320336	-184.223140	-17.854290	1162.508920	-246.998596	76.517918	1037.634622	-14.428360	99.224953	1023.662495	-409.879143	183.794177	966.459211	-9.246802	271.353721	942.686064	-15.693928	332.699280	881.940175	-21.661266	285.631346	973.717301	-34.475030	397.890328	797.246133	-43.784952	395.226134	770.949832	-155.004512	365.260509	680.750051	-15.593190	359.785659	594.740117	-34.227221	315.055577	519.981348	-34.952844	380.355978	591.959691	-67.547657	284.576967	440.280895	-38.256088	217.538558	421.418693	-85.562343	485.436080	358.655008	-101.468605	391.343461	352.892824	-25.654786	154.946564	916.601106	-417.084742	227.989487	869.519130	-408.613391	254.148154	893.465450	-396.154091	267.937091	790.112584	-401.788487	299.356155	685.115664	-372.630483	297.717530	668.125246	-255.557632	32.155976	427.878993	-372.109725	-37.902395	452.398602	-325.819260	76.974333	291.965975	-395.886517	229.284253	607.063954	-396.510948	184.317200	534.352949	-379.547007	107.005868	489.414173	-380.826318	202.369148	520.413532	-347.846711	144.400251	237.825227	-337.869618	-205.157857	866.629212	-203.155818	-52.322911	83.917195	-410.382047	-50.944789	79.336859	-13.678493	
2	0.0100	427.577648	1348.023841	-46.766196	441.360372	1350.288193	-381.350773	417.187977	1449.255109	-210.055354	446.668748	1293.522643	-207.376131	480.476294	1085.464375	27.337578	682.564536	941.918679	-30.456514	474.139643	1084.165020	-458.291994	673.093446	936.478785	-404.970557	-47.692611	1126.096178	-220.052965	137.929002	1100.507734	-379.832093	108.043291	1102.396920	-44.867356	151.600572	1033.054795	-349.485473	139.421917	1057.573268	-77.299245	-21.183954	1164.313382	-184.238351	-17.886686	1162.493002	-247.028306	76.516862	1037.628072	-14.441719	99.187788	1023.629783	-409.902188	183.796386	966.479772	-9.305565	271.364687	942.705751	-15.737968	332.734392	882.017693	-21.681711	285.647049	973.782428	-34.582528	397.975566	797.357513	-43.808280	395.244619	771.029940	-155.047751	365.290484	680.816630	-15.611295	359.791915	594.791096	-34.267638	315.054199	520.054866	-34.983460	380.358179	592.047183	-67.563799	284.572797	440.357350	-38.264029	217.532745	421.510730	-85.569077	485.417461	358.730087	-101.466838	391.350523	352.957480	-25.655949	154.903578	916.558840	-417.108311	227.949854	869.480222	-408.652167	254.118286	893.407571	-396.181285	267.871156	790.077098	-401.847970	299.287842	685.045136	-372.654997	297.661984	668.084256	-255.586707	32.119200	427.819043	-372.109760	-37.944813	452.314344	-325.814990	76.965623	291.904119	-395.881821	229.222080	607.013963	-396.528995	184.250227	534.279849	-379.557803	106.947177	489.350697	-380.853630	202.302605	520.342859	-347.867406	144.424630	237.781047	-337.852702	-205.157598	866.626136	-203.155409	-52.313731	83.947729	-410.378062	-50.905422	79.421829	-13.719069	
3	0.0150	427.569320	1348.009592	-46.812352	441.313447	1350.294165	-381.391332	417.166076	1449.263822	-210.119208	446.640887	1293.542686	-207.434347	480.480602	1085.466966	27.316662	682.425353	942.121198	-30.453206	474.155568	1084.165553	-458.302634	673.116977	936.488646	-404.961692	-47.713161	1126.087475	-220.064456	137.884845	1100.511870	-379.814939	108.033026	1102.422692	-44.894591	151.566648	1033.048270	-349.478056	139.416195	1057.597045	-77.319326	-21.200359	1164.294187	-184.265578	-17.913877	1162.477740	-247.037241	76.486740	1037.635226	-14.459783	99.157330	1023.613259	-409.903297	183.789779	966.499839	-9.349615	271.365698	942.759431	-15.796553	332.719060	882.076018	-21.712456	285.640572	973.841596	-34.624968	398.001391	797.409274	-43.837226	395.254601	771.105403	-155.100951	365.275424	680.898425	-15.636119	359.797558	594.866282	-34.288458	315.065451	520.129435	-35.005371	380.371141	592.121735	-67.574457	284.569751	440.460430	-38.274877	217.517012	421.569830	-85.573804	485.409225	358.800834	-101.473799	391.327863	353.017802	-25.657147	154.870861	916.529084	-417.145095	227.908362	869.418303	-408.683167	254.090011	893.358984	-396.202484	267.835537	790.043548	-401.857219	299.217489	684.977000	-372.678504	297.638227	668.027621	-255.615591	32.081314	427.743380	-372.104477	-38.000722	452.232731	-325.819023	76.976900	291.865356	-395.882421	229.153791	606.954085	-396.563937	184.213664	534.221996	-379.556086	106.900967	489.277915	-380.861365	202.277845	520.317765	-347.903027	144.430905	237.735423	-337.857220	-205.163427	866.631191	-203.162211	-52.308511	83.927251	-410.366926	-50.960688	79.340232	-13.688877	
4	0.0200	428.163519	1347.622444	-46.779191	441.297810	1350.313959	-381.409954	417.137824	1449.279477	-210.137568	446.599262	1293.567922	-207.489574	481.136236	1085.293763	27.291154	682.435696	942.115126	-30.451599	474.163970	1084.174696	-458.289862	673.113760	936.607410	-405.322342	-48.346359	1126.488429	-219.644453	137.843841	1100.522080	-379.792364	108.003464	1102.432636	-44.914640	151.545677	1033.056385	-349.512712	139.395140	1057.619380	-77.348267	-21.648858	1164.293705	-184.500063	-17.896037	1162.773322	-246.817807	76.477390	1037.638763	-14.475206	99.049268	1023.480267	-409.710586	183.789103	966.517422	-9.368642	271.850221	943.483921	-15.406013	332.712982	882.045994	-21.694200	285.499280	973.851414	-34.932330	398.040091	797.465869	-43.874472	395.504730	770.892554	-155.231729	365.225022	680.974409	-15.585302	359.771113	594.884497	-34.348102	315.064916	520.185072	-35.012654	380.403979	592.058081	-67.654541	284.108463	441.100363	-37.820590	217.514280	421.634033	-85.580848	485.401249	358.804229	-101.347249	391.317017	353.082428	-25.659575	154.835203	916.482260	-417.160434	227.865391	869.391435	-408.693531	254.032141	893.225645	-396.092828	267.791780	789.969884	-401.871324	299.175556	684.933212	-372.693378	297.575220	667.968984	-255.642740	32.042228	427.682134	-372.106171	-38.034489	452.146306	-325.818514	76.977707	291.819890	-395.888830	229.268763	606.819416	-396.649262	184.026080	534.066897	-380.069483	106.568338	489.899747	-381.164235	201.578169	519.611704	-347.055005	144.669308	238.531558	-337.167896	-205.201875	866.600384	-203.253056	-52.300010	83.944867	-410.371430	-50.945576	79.333035	-13.702870	
5	0.0250	427.790445	1348.003568	-46.765574	441.140944	1350.496607	-381.370449	417.191889	1449.349319	-210.217334	446.372431	1293.985003	-207.297543	480.669942	1085.853445	27.456570	682.412602	942.009595	-30.364093	474.180607	1084.598880	-458.574449	673.099734	936.538818	-405.195321	-48.771232	1126.093281	-219.873380	137.718519	1100.503383	-379.717428	107.926344	1102.790096	-44.886759	151.559147	1033.096600	-349.449467	139.545736	1058.109218	-77.281798	-21.782958	1163.869710	-184.372155	-18.040194	1162.843295	-246.718764	76.426580	1037.881245	-14.627321	98.888737	1023.616861	-409.769430	183.690220	966.981457	-9.193385	271.715714	943.857289	-15.361932	332.627104	882.795827	-21.336665	285.512153	973.907977	-34.870038	397.917069	797.500837	-43.109252	395.360212	771.143759	-154.896120	364.939171	681.427957	-15.455171	359.674581	595.387424	-34.156168	314.718913	520.586045	-34.725671	380.322420	592.379155	-67.585055	283.479107	441.385066	-37.812480	217.593358	421.644635	-85.630124	485.464990	358.886349	-101.299792	391.074785	353.560461	-25.502118	154.677963	916.443735	-417.067340	227.751312	869.546522	-408.786162	253.857564	893.380945	-396.121257	267.722430	789.915365	-402.048054	299.084887	685.063120	-372.827330	297.122287	668.353637	-255.446611	32.062923	427.683005	-372.233144	-38.161277	452.288281	-325.888335	76.911322	291.760261	-395.946314	229.030278	607.054488	-396.656653	183.986795	534.443571	-380.230896	106.249272	490.059690	-381.575903	201.713376	519.661945	-347.253834	144.608643	238.488610	-337.208120	-205.171141	866.519997	-203.305636	-52.483862	84.243692	-410.337659	-51.057783	80.002463	-13.483128	
